<?xml version="1.0" encoding="UTF-8" standalone="no"?>
<!-- Created with Inkscape (http://www.inkscape.org/) -->

<svg
   xmlns:dc="http://purl.org/dc/elements/1.1/"
   xmlns:cc="http://creativecommons.org/ns#"
   xmlns:rdf="http://www.w3.org/1999/02/22-rdf-syntax-ns#"
   xmlns:svg="http://www.w3.org/2000/svg"
   xmlns="http://www.w3.org/2000/svg"
   xmlns:sodipodi="http://sodipodi.sourceforge.net/DTD/sodipodi-0.dtd"
   xmlns:inkscape="http://www.inkscape.org/namespaces/inkscape"
   id="Hotel_e_xA0_Image_1_"
   xml:space="preserve"
   version="1.0"
   viewBox="0 0 124.377 84.52"
   inkscape:version="0.92.4 (5da689c313, 2019-01-14)"
   sodipodi:docname="gramzon-Bed-5.svg"><defs
   id="defs3747" /><sodipodi:namedview
   pagecolor="#ffffff"
   bordercolor="#666666"
   borderopacity="1"
   objecttolerance="10"
   gridtolerance="10"
   guidetolerance="10"
   inkscape:pageopacity="0"
   inkscape:pageshadow="2"
   inkscape:window-width="1920"
   inkscape:window-height="1017"
   id="namedview3745"
   showgrid="false"
   inkscape:zoom="5.0165643"
   inkscape:cx="33.715861"
   inkscape:cy="33.374543"
   inkscape:window-x="-8"
   inkscape:window-y="-8"
   inkscape:window-maximized="1"
   inkscape:current-layer="Hotel_e_xA0_Image_1_" />









<g
   id="g4567"
   transform="translate(39.972662,-8.7149884)"><g
     style="fill:#ffffff"
     transform="translate(-39.749139,8.0344004)"
     id="g3">
	<path
   style="fill:#ffffff"
   inkscape:connector-curvature="0"
   d="m 92.289,2.052 c 9.341,1.994 17.141,4.941 22.731,8.239 5.51,3.338 9.2,6.843 9.36,11.232 0,0.284 -0.02,0.575 -0.06,0.875 -0.85,5.926 -1.86,15.206 -1.86,15.22 -0.05,0.442 -0.25,0.866 -0.56,1.186 l -1.09,1.11 c -0.52,0.531 -1.3,0.73 -2.01,0.513 l -4.03,-1.23 -4.01,3.467 c -0.11,0.097 -0.22,0.179 -0.32,0.25 -0.08,0.074 -0.12,0.118 -0.15,0.143 -0.05,0.046 -0.14,0.125 -0.26,0.22 l -6.98,6.473 c -0.14,0.126 -0.29,0.229 -0.44,0.312 -0.06,0.037 -0.11,0.071 -0.16,0.102 -0.11,0.07 -0.2,0.112 -0.25,0.133 -0.17,0.085 -0.37,0.165 -0.6,0.228 -0.04,0.011 -0.12,0.032 -0.24,0.054 -0.02,0.024 -0.05,0.048 -0.08,0.072 l -27.45,24.056 -0.073,4.777 c -0.073,1.535 -0.854,2.524 -1.686,3.343 -0.835,0.763 -1.808,1.373 -3.04,1.591 -0.257,0.06 -0.546,0.102 -0.859,0.102 h -0.021 c -0.614,0 -1.218,-0.143 -1.785,-0.395 L 6.025,57.145 C 3.838,56.068 2.306,54.053 1.855,51.658 L 0.058,39.714 C 0.019,39.461 0,39.215 0,38.985 -0.004,38.205 0.219,37.386 0.726,36.728 l 0.001,10e-4 c 1.194,-1.582 2.869,-2.306 4.735,-2.39 0.465,0 0.956,0.065 1.46,0.26 l 4.05,1.581 30.596,-14.943 c 0.281,-0.134 0.549,-0.23 0.808,-0.304 0.208,-0.224 0.428,-0.39 0.629,-0.517 0.102,-0.064 0.166,-0.097 0.188,-0.11 0.019,-0.01 0.037,-0.02 0.056,-0.029 0.086,-0.061 0.178,-0.116 0.275,-0.163 l 9.114,-4.465 c 0.033,-0.017 0.058,-0.029 0.076,-0.038 0.056,-0.031 0.159,-0.085 0.312,-0.147 0.24,-0.091 0.335,-0.102 0.364,-0.112 l 0.05,-0.014 c 0.024,-0.006 0.056,-0.015 0.095,-0.023 0.268,-0.258 0.547,-0.437 0.832,-0.587 l 0.859,-0.45 c 0.151,-0.955 0.58,-1.769 1.11,-2.5 0.666,-0.894 1.537,-1.663 2.604,-2.193 L 60.649,8.747 V 8.204 C 60.606,5.443 62.577,3.154 65.302,2.046 67.797,0.639 71.224,0.012 75.762,0 c 4.422,0 9.905,0.641 16.527,2.052"
   id="path5" />
</g><path
     inkscape:connector-curvature="0"
     d="m 23.302861,18.3884 -3.008,1.476 c -1.326,0.625 -2.408,2.168 -2.375,3.131 v 0.024 c -0.019,0.93 1.142,2.242 2.566,2.61 l 14.961,4.092 c 0.396,0.109 0.873,0.164 1.378,0.164 1.283,0.004 2.753,-0.367 3.628,-0.944 l 2.741,-1.782 c 1.269,-0.796 2.343,-2.484 2.331,-3.347 -0.006,-0.053 -0.002,-0.076 -0.004,-0.076 0.041,-0.832 -1.062,-2.043 -2.493,-2.374 l -14.458,-3.544 0.119,-0.484 -0.119,0.484 c -0.45,-0.111 -1.002,-0.168 -1.587,-0.167 h -0.028 c -1.288,0 -2.74,0.285 -3.652,0.737 z"
     style="fill:#81aabc;fill-opacity:1"
     id="path7" /><path
     inkscape:connector-curvature="0"
     d="m 44.420861,30.1944 c 0,0 -0.002,0.012 -0.002,0.045 -0.026,0.985 1.041,2.248 2.415,2.6 l 18.687,4.982 c 0.31,0.084 0.68,0.13 1.07,0.13 1.29,0.006 2.79,-0.497 3.61,-1.234 l 2.11,-1.858 c 1.15,-0.989 2.23,-2.928 2.32,-4.01 v -0.165 c 0.03,-0.931 -0.96,-2.073 -2.31,-2.384 l -17.708,-4.208 c -0.369,-0.091 -0.806,-0.134 -1.269,-0.134 -1.333,-0.004 -2.895,0.379 -3.82,0.96 l -2.672,1.657 c -1.271,0.762 -2.404,2.516 -2.429,3.589 l -0.501,-0.025 z"
     style="fill:#81aabc;fill-opacity:1"
     id="path9" /><path
     inkscape:connector-curvature="0"
     d="m 52.123861,12.0424 c -13.343,-2.8439996 -21.831,-2.4519996 -25.694,-0.158 4.257,-1.793 12.4,-1.8989996 24.605,0.702 18.966,4.042 31.316,12.124 30.466,18.108 -0.85,5.984 -1.87,15.854 -1.87,15.854 l 1.09,-1.111 c 0,0 1.01,-9.303 1.87,-15.287 0.85,-5.984 -11.5,-14.067 -30.467,-18.108 z"
     style="fill:#81aabc;fill-opacity:1"
     id="path11" /><path
     inkscape:connector-curvature="0"
     d="m 29.634861,69.1714 -63.189,-24.673 c -1.137,-0.444 -3.163,0.367 -3.881,1.48 0.379,-0.498 1.075,-0.652 1.938,-0.314 l 63.188,24.673 c 1.453,0.567 2.621,2.307 2.597,3.865 l -0.224,14.454 c -0.015,0.984 -0.494,1.645 -1.202,1.841 1.405,-0.18 3.125,-1.732 3.145,-3.007 l 0.224,-14.454 c 0.025,-1.559 -1.144,-3.298 -2.596,-3.865 z"
     style="fill:#81aabc;fill-opacity:1"
     id="path13" /><path
     inkscape:connector-curvature="0"
     d="m 77.490861,33.4134 -2.45,-0.605 c -0.49,1.034 -1.24,2.061 -2.07,2.801 l -2.1,1.858 c -1.09,0.948 -2.75,1.475 -4.28,1.483 -0.12,0 -0.25,-0.014 -0.37,-0.021 l 2.33,0.64 c 1.11,0.324 1.9,1.384 1.91,2.536 v 0.124 l -0.36,6.473 c 0,0.057 -0.02,0.108 -0.02,0.164 l 6.85,-5.929 c 0.71,-0.611 1.38,-1.873 1.48,-2.802 l 0.54,-4.626 c 0.11,-0.929 -0.55,-1.872 -1.46,-2.096 z"
     style="fill:#81aabc;fill-opacity:1"
     id="path15" /><path
     inkscape:connector-curvature="0"
     d="m 46.316861,25.7324 -0.386,-0.095 c -0.165,0.295 -0.359,0.583 -0.578,0.86 0.302,-0.286 0.624,-0.548 0.964,-0.765 z"
     style="fill:#ffffff"
     id="path17" /><path
     inkscape:connector-curvature="0"
     d="m 17.046861,23.7484 -1.5,0.786 c -0.205,0.107 -0.354,0.223 -0.452,0.34 l 3.598,0.989 c -0.794,-0.547 -1.4,-1.29 -1.646,-2.115 z"
     style="fill:#81aabc;fill-opacity:1"
     id="path19" /><path
     inkscape:connector-curvature="0"
     d="m 43.418861,30.2404 c 0,-0.033 0,-0.084 0.006,-0.152 0.069,-0.945 0.549,-1.966 1.247,-2.847 -0.292,0.278 -0.603,0.537 -0.932,0.757 l -2.743,1.782 c -1.089,0.703 -2.626,1.077 -4.062,1.099 l 8.229,2.263 c -1.022,-0.699 -1.725,-1.759 -1.745,-2.902 z"
     style="fill:#81aabc;fill-opacity:1"
     id="path21" /><path
     inkscape:connector-curvature="0"
     d="m 13.332861,25.4254 c -0.165,0 -0.292,0.042 -0.451,0.142 l -7.8249999,3.831 56.2839999,16.749 c 1.09,0.342 1.85,1.4 1.87,2.535 v 0.158 l -0.42,6.009 5.91,-5.481 0.04,-0.024 c 0.19,-0.126 0.34,-0.342 0.36,-0.696 l 0.36,-6.461 v -0.08 c 0.02,-0.657 -0.55,-1.417 -1.18,-1.572 l -54.666,-15.069 c -0.105,-0.029 -0.2,-0.041 -0.282,-0.041 z"
     style="fill:#81aabc;fill-opacity:1"
     id="path23" /></g>
<metadata
   id="metadata3742"><rdf:RDF><cc:Work><dc:format>image/svg+xml</dc:format><dc:type
         rdf:resource="http://purl.org/dc/dcmitype/StillImage" /><cc:license
         rdf:resource="http://creativecommons.org/licenses/publicdomain/" /><dc:publisher><cc:Agent
           rdf:about="http://openclipart.org/"><dc:title>Openclipart</dc:title></cc:Agent></dc:publisher><dc:title></dc:title><dc:date>2009-10-02T16:03:33</dc:date><dc:description>A stylized double bed in black and white.</dc:description><dc:source>https://openclipart.org/detail/27650/bed-by-gramzon</dc:source><dc:creator><cc:Agent><dc:title>gramzon</dc:title></cc:Agent></dc:creator><dc:subject><rdf:Bag><rdf:li>bed</rdf:li><rdf:li>furniture</rdf:li><rdf:li>icon</rdf:li><rdf:li>night</rdf:li><rdf:li>pillow</rdf:li><rdf:li>sheet</rdf:li><rdf:li>sleep</rdf:li></rdf:Bag></dc:subject></cc:Work><cc:License
       rdf:about="http://creativecommons.org/licenses/publicdomain/"><cc:permits
         rdf:resource="http://creativecommons.org/ns#Reproduction" /><cc:permits
         rdf:resource="http://creativecommons.org/ns#Distribution" /><cc:permits
         rdf:resource="http://creativecommons.org/ns#DerivativeWorks" /></cc:License></rdf:RDF></metadata></svg>